# xmcd
#
# Track frame offsets:
#	150
#	15751
#	31640
#	48443
#	66650
#	81521
#
# Disc length: 1235
#
# Revision: 1
# Processed by: cddbd v1.5.1PL0 Copyright (c) Steve Scherf et al.
# Submitted via: VisiTrax 2.9.5.180 - For more info visit www.synapsa.com
# Normalized: r0:DSETVAR1
#
DISCID=4204d106
DTITLE=Various Artist - CDX 258 January 2001
DYEAR=2001
DGENRE=
TTITLE0=Kenny Chesney - Don't happen twice
TTITLE1=Mark McGuinn - Mrs. Steven Rudy
TTITLE2=Montgomery Gentry - She couldn't change me
TTITLE3=Victor Sanz - One forever
TTITLE4=Teresa James - She's a dancer
TTITLE5=Brenda Riddle - The feeling's back again
EXTD=
EXTT0=
EXTT1=
EXTT2=
EXTT3=
EXTT4=
EXTT5=
PLAYORDER=
